{
  "accessors": [
    {
      "bufferView": 2,
      "componentType": 5126,
      "count": 65532,
      "max": [
        0.5319019556045532,
        1.056199550628662,
        0.0007208656170405447
      ],
      "min": [
        -0.0006349702016450465,
        -1.0562000274658203,
        -0.017521396279335022
      ],
      "type": "VEC3"
    },
    {
      "bufferView": 2,
      "byteOffset": 786384,
      "componentType": 5126,
      "count": 65532,
      "max": [
        1.0,
        1.0,
        1.0
      ],
      "min": [
        -1.0,
        -1.0,
        -1.0
      ],
      "type": "VEC3"
    },
    {
      "bufferView": 1,
      "componentType": 5126,
      "count": 65532,
      "max": [
        0.9879516363143921,
        0.9847162961959839
      ],
      "min": [
        0.0020014753099530935,
        0.0020014753099530935
      ],
      "type": "VEC2"
    },
    {
      "bufferView": 0,
      "componentType": 5125,
      "count": 112005,
      "type": "SCALAR"
    },
    {
      "bufferView": 2,
      "byteOffset": 1572768,
      "componentType": 5126,
      "count": 65534,
      "max": [
        0.47580480575561523,
        -0.2917490005493164,
        1.3191031030146405e-05
      ],
      "min": [
        0.056025341153144836,
        -0.8542019128799438,
        -0.0019094679737463593
      ],
      "type": "VEC3"
    },
    {
      "bufferView": 2,
      "byteOffset": 2359176,
      "componentType": 5126,
      "count": 65534,
      "max": [
        0.9243180751800537,
        0.9251601099967957,
        0.005744635593146086
      ],
      "min": [
        -0.923891007900238,
        -0.9238826036453247,
        -0.006092691794037819
      ],
      "type": "VEC3"
    },
    {
      "bufferView": 1,
      "byteOffset": 524256,
      "componentType": 5126,
      "count": 65534,
      "max": [
        0.997998058795929,
        0.9974623322486877
      ],
      "min": [
        0.0066697439178824425,
        0.0020014753099530935
      ],
      "type": "VEC2"
    },
    {
      "bufferView": 0,
      "byteOffset": 448020,
      "componentType": 5125,
      "count": 98298,
      "type": "SCALAR"
    },
    {
      "bufferView": 2,
      "byteOffset": 3145584,
      "componentType": 5126,
      "count": 65534,
      "max": [
        0.47580480575561523,
        0.8895196914672852,
        7.455237209796906e-07
      ],
      "min": [
        0.056025341153144836,
        -0.30575573444366455,
        -0.001909449347294867
      ],
      "type": "VEC3"
    },
    {
      "bufferView": 2,
      "byteOffset": 3931992,
      "componentType": 5126,
      "count": 65534,
      "max": [
        0.9238882660865784,
        0.9238826036453247,
        0.010863430798053741
      ],
      "min": [
        -0.9238888025283813,
        -0.9262707829475403,
        -0.010893359780311584
      ],
      "type": "VEC3"
    },
    {
      "bufferView": 1,
      "byteOffset": 1048528,
      "componentType": 5126,
      "count": 65534,
      "max": [
        0.9976348876953125,
        0.9951578378677368
      ],
      "min": [
        0.0020014753099530935,
        0.0020014753099530935
      ],
      "type": "VEC2"
    },
    {
      "bufferView": 0,
      "byteOffset": 841212,
      "componentType": 5125,
      "count": 98298,
      "type": "SCALAR"
    },
    {
      "bufferView": 2,
      "byteOffset": 4718400,
      "componentType": 5126,
      "count": 65532,
      "max": [
        0.5319019556045532,
        1.056199312210083,
        7.492490112781525e-07
      ],
      "min": [
        0.0005787807749584317,
        -1.0562001466751099,
        -0.0019114735769107938
      ],
      "type": "VEC3"
    },
    {
      "bufferView": 2,
      "byteOffset": 5504784,
      "componentType": 5126,
      "count": 65532,
      "max": [
        1.0,
        1.0,
        1.0
      ],
      "min": [
        -1.0,
        -1.0,
        -1.0
      ],
      "type": "VEC3"
    },
    {
      "bufferView": 1,
      "byteOffset": 1572800,
      "componentType": 5126,
      "count": 65532,
      "max": [
        0.9979985356330872,
        0.9977164268493652
      ],
      "min": [
        0.0020014753099530935,
        0.0020014753099530935
      ],
      "type": "VEC2"
    },
    {
      "bufferView": 0,
      "byteOffset": 1234404,
      "componentType": 5125,
      "count": 98523,
      "type": "SCALAR"
    },
    {
      "bufferView": 2,
      "byteOffset": 6291168,
      "componentType": 5126,
      "count": 65532,
      "max": [
        0.48071861267089844,
        1.056199550628662,
        0.0006349403993226588
      ],
      "min": [
        -0.0006349702016450465,
        -1.0562001466751099,
        -0.001909473561681807
      ],
      "type": "VEC3"
    },
    {
      "bufferView": 2,
      "byteOffset": 7077552,
      "componentType": 5126,
      "count": 65532,
      "max": [
        1.0,
        1.0,
        1.0
      ],
      "min": [
        -1.0,
        -1.0,
        -1.0
      ],
      "type": "VEC3"
    },
    {
      "bufferView": 1,
      "byteOffset": 2097056,
      "componentType": 5126,
      "count": 65532,
      "max": [
        0.9928233623504639,
        0.9930481910705566
      ],
      "min": [
        0.0020014753099530935,
        0.0020014753099530935
      ],
      "type": "VEC2"
    },
    {
      "bufferView": 0,
      "byteOffset": 1628496,
      "componentType": 5125,
      "count": 111429,
      "type": "SCALAR"
    },
    {
      "bufferView": 2,
      "byteOffset": 7863936,
      "componentType": 5126,
      "count": 65532,
      "max": [
        0.48071861267089844,
        0.9907710552215576,
        4.29131141572725e-05
      ],
      "min": [
        0.05118343234062195,
        -1.0128382444381714,
        -0.001909473561681807
      ],
      "type": "VEC3"
    },
    {
      "bufferView": 2,
      "byteOffset": 8650320,
      "componentType": 5126,
      "count": 65532,
      "max": [
        1.0,
        0.0018215777818113565,
        1.0
      ],
      "min": [
        -0.015232357196509838,
        -1.0,
        -1.0
      ],
      "type": "VEC3"
    },
    {
      "bufferView": 1,
      "byteOffset": 2621312,
      "componentType": 5126,
      "count": 65532,
      "max": [
        0.7045976519584656,
        0.8927037119865417
      ],
      "min": [
        0.11367784440517426,
        0.3279455900192261
      ],
      "type": "VEC2"
    },
    {
      "bufferView": 0,
      "byteOffset": 2074212,
      "componentType": 5125,
      "count": 113505,
      "type": "SCALAR"
    },
    {
      "bufferView": 2,
      "byteOffset": 9436704,
      "componentType": 5126,
      "count": 65532,
      "max": [
        0.48071861267089844,
        0.27058935165405273,
        7.231719791889191e-07
      ],
      "min": [
        0.05118343234062195,
        -1.0128382444381714,
        -0.001909473561681807
      ],
      "type": "VEC3"
    },
    {
      "bufferView": 2,
      "byteOffset": 10223088,
      "componentType": 5126,
      "count": 65532,
      "max": [
        1.0,
        0.006292993668466806,
        1.0
      ],
      "min": [
        -0.007458003703504801,
        -1.0,
        -1.0
      ],
      "type": "VEC3"
    },
    {
      "bufferView": 1,
      "byteOffset": 3145568,
      "componentType": 5126,
      "count": 65532,
      "max": [
        0.704597532749176,
        0.8927088975906372
      ],
      "min": [
        0.25694790482521057,
        0.0020014753099530935
      ],
      "type": "VEC2"
    },
    {
      "bufferView": 0,
      "byteOffset": 2528232,
      "componentType": 5125,
      "count": 115443,
      "type": "SCALAR"
    },
    {
      "bufferView": 2,
      "byteOffset": 11009472,
      "componentType": 5126,
      "count": 49490,
      "max": [
        0.48071861267089844,
        -0.119651198387146,
        1.3191031030146405e-05
      ],
      "min": [
        0.06322745978832245,
        -0.9946585893630981,
        -0.001909473561681807
      ],
      "type": "VEC3"
    },
    {
      "bufferView": 2,
      "byteOffset": 11603352,
      "componentType": 5126,
      "count": 49490,
      "max": [
        0.3826940357685089,
        0.0015007839538156986,
        1.0
      ],
      "min": [
        -0.0034058825112879276,
        -0.9238752126693726,
        -1.0
      ],
      "type": "VEC3"
    },
    {
      "bufferView": 1,
      "byteOffset": 3669824,
      "componentType": 5126,
      "count": 49490,
      "max": [
        0.7964880466461182,
        0.8878147006034851
      ],
      "min": [
        0.3825581669807434,
        0.008333683013916016
      ],
      "type": "VEC2"
    },
    {
      "bufferView": 0,
      "byteOffset": 2990004,
      "componentType": 5125,
      "count": 87093,
      "type": "SCALAR"
    },
    {
      "bufferView": 2,
      "byteOffset": 12197232,
      "componentType": 5126,
      "count": 54,
      "max": [
        0.5319019556045532,
        0.04186088964343071,
        0.0007208397146314383
      ],
      "min": [
        0.48071861267089844,
        -0.041861604899168015,
        -0.017521396279335022
      ],
      "type": "VEC3"
    },
    {
      "bufferView": 2,
      "byteOffset": 12197880,
      "componentType": 5126,
      "count": 54,
      "max": [
        1.0,
        1.0,
        1.0
      ],
      "min": [
        -1.0,
        -0.9760004878044128,
        -1.0
      ],
      "type": "VEC3"
    },
    {
      "bufferView": 1,
      "byteOffset": 4065744,
      "componentType": 5126,
      "count": 54,
      "max": [
        0.5644896626472473,
        0.16075186431407928
      ],
      "min": [
        0.5361778140068054,
        0.07198166847229004
      ],
      "type": "VEC2"
    },
    {
      "bufferView": 0,
      "byteOffset": 3338376,
      "componentType": 5125,
      "count": 90,
      "type": "SCALAR"
    },
    {
      "bufferView": 2,
      "byteOffset": 12198528,
      "componentType": 5126,
      "count": 852,
      "max": [
        0.2730512022972107,
        2.1397056579589844,
        0.5078154802322388
      ],
      "min": [
        -0.2732040584087372,
        0.012952923774719238,
        0.45743703842163086
      ],
      "type": "VEC3"
    },
    {
      "bufferView": 2,
      "byteOffset": 12208752,
      "componentType": 5126,
      "count": 852,
      "max": [
        1.0,
        1.0,
        0.9974265098571777
      ],
      "min": [
        -1.0,
        -1.0,
        -0.9974265694618225
      ],
      "type": "VEC3"
    },
    {
      "bufferView": 1,
      "byteOffset": 4066176,
      "componentType": 5126,
      "count": 852,
      "max": [
        0.4052640497684479,
        0.999881386756897
      ],
      "min": [
        0.0001186042427434586,
        0.0001186042427434586
      ],
      "type": "VEC2"
    },
    {
      "bufferView": 0,
      "byteOffset": 3338736,
      "componentType": 5125,
      "count": 2664,
      "type": "SCALAR"
    },
    {
      "bufferView": 2,
      "byteOffset": 12218976,
      "componentType": 5126,
      "count": 288,
      "max": [
        0.2732039988040924,
        2.1401681900024414,
        0.5078153610229492
      ],
      "min": [
        -0.2732039988040924,
        0.012952970340847969,
        -0.5078153610229492
      ],
      "type": "VEC3"
    },
    {
      "bufferView": 2,
      "byteOffset": 12222432,
      "componentType": 5126,
      "count": 288,
      "max": [
        0.9673570394515991,
        0.9674057960510254,
        0.9674808979034424
      ],
      "min": [
        -0.9673755168914795,
        -0.9677724838256836,
        -0.9674808979034424
      ],
      "type": "VEC3"
    },
    {
      "bufferView": 1,
      "byteOffset": 4072992,
      "componentType": 5126,
      "count": 288,
      "max": [
        0.4760870337486267,
        0.6480031609535217
      ],
      "min": [
        0.0002520699636079371,
        0.0002520699636079371
      ],
      "type": "VEC2"
    },
    {
      "bufferView": 0,
      "byteOffset": 3349392,
      "componentType": 5125,
      "count": 972,
      "type": "SCALAR"
    },
    {
      "bufferView": 2,
      "byteOffset": 12225888,
      "componentType": 5126,
      "count": 1928,
      "max": [
        0.26669999957084656,
        2.1335999965667725,
        0.5586153864860535
      ],
      "min": [
        -0.26669999957084656,
        0.0,
        -0.5586153864860535
      ],
      "type": "VEC3"
    },
    {
      "bufferView": 2,
      "byteOffset": 12249024,
      "componentType": 5126,
      "count": 1928,
      "max": [
        1.0,
        1.0,
        1.0
      ],
      "min": [
        -1.0,
        -1.0,
        -1.0
      ],
      "type": "VEC3"
    },
    {
      "bufferView": 1,
      "byteOffset": 4075296,
      "componentType": 5126,
      "count": 1928,
      "max": [
        0.984873354434967,
        0.9997479319572449
      ],
      "min": [
        0.0002520699636079371,
        0.0002520699636079371
      ],
      "type": "VEC2"
    },
    {
      "bufferView": 0,
      "byteOffset": 3353280,
      "componentType": 5125,
      "count": 7008,
      "type": "SCALAR"
    }
  ],
  "asset": {
    "extras": {
      "author": "Full Barrel Productions (https://sketchfab.com/Full_Barrel_Production)",
      "license": "CC-BY-4.0 (http://creativecommons.org/licenses/by/4.0/)",
      "source": "https://sketchfab.com/3d-models/server-rack-3c1891f5a6764c6db5af13455e696bf4",
      "title": "Server Rack"
    },
    "generator": "Sketchfab-14.77.0",
    "version": "2.0"
  },
  "bufferViews": [
    {
      "buffer": 0,
      "byteLength": 3381312,
      "name": "floatBufferViews",
      "target": 34963
    },
    {
      "buffer": 0,
      "byteLength": 4090720,
      "byteOffset": 3381312,
      "byteStride": 8,
      "name": "floatBufferViews",
      "target": 34962
    },
    {
      "buffer": 0,
      "byteLength": 12272160,
      "byteOffset": 7472032,
      "byteStride": 12,
      "name": "floatBufferViews",
      "target": 34962
    }
  ],
  "buffers": [
    {
      "byteLength": 19744192,
      "uri": "scene.bin"
    }
  ],
  "materials": [
    {
      "doubleSided": true,
      "name": "Black_Metal",
      "pbrMetallicRoughness": {
        "baseColorFactor": [
          0.0270095,
          0.0270095,
          0.0270095,
          1.0
        ],
        "roughnessFactor": 0.5
      }
    },
    {
      "doubleSided": true,
      "name": "Shiney_Metal",
      "pbrMetallicRoughness": {
        "baseColorFactor": [
          0.8,
          0.8,
          0.8,
          1.0
        ],
        "roughnessFactor": 0.2
      }
    },
    {
      "doubleSided": true,
      "name": "Rack_-_Metallic_Gray.002",
      "pbrMetallicRoughness": {
        "baseColorFactor": [
          0.6876,
          0.6876,
          0.6876,
          1.0
        ],
        "roughnessFactor": 0.4
      }
    }
  ],
  "meshes": [
    {
      "name": "Object_0",
      "primitives": [
        {
          "attributes": {
            "NORMAL": 1,
            "POSITION": 0,
            "TEXCOORD_0": 2
          },
          "indices": 3,
          "material": 0,
          "mode": 4
        }
      ]
    },
    {
      "name": "Object_1",
      "primitives": [
        {
          "attributes": {
            "NORMAL": 5,
            "POSITION": 4,
            "TEXCOORD_0": 6
          },
          "indices": 7,
          "material": 0,
          "mode": 4
        }
      ]
    },
    {
      "name": "Object_2",
      "primitives": [
        {
          "attributes": {
            "NORMAL": 9,
            "POSITION": 8,
            "TEXCOORD_0": 10
          },
          "indices": 11,
          "material": 0,
          "mode": 4
        }
      ]
    },
    {
      "name": "Object_3",
      "primitives": [
        {
          "attributes": {
            "NORMAL": 13,
            "POSITION": 12,
            "TEXCOORD_0": 14
          },
          "indices": 15,
          "material": 0,
          "mode": 4
        }
      ]
    },
    {
      "name": "Object_4",
      "primitives": [
        {
          "attributes": {
            "NORMAL": 17,
            "POSITION": 16,
            "TEXCOORD_0": 18
          },
          "indices": 19,
          "material": 0,
          "mode": 4
        }
      ]
    },
    {
      "name": "Object_5",
      "primitives": [
        {
          "attributes": {
            "NORMAL": 21,
            "POSITION": 20,
            "TEXCOORD_0": 22
          },
          "indices": 23,
          "material": 0,
          "mode": 4
        }
      ]
    },
    {
      "name": "Object_6",
      "primitives": [
        {
          "attributes": {
            "NORMAL": 25,
            "POSITION": 24,
            "TEXCOORD_0": 26
          },
          "indices": 27,
          "material": 0,
          "mode": 4
        }
      ]
    },
    {
      "name": "Object_7",
      "primitives": [
        {
          "attributes": {
            "NORMAL": 29,
            "POSITION": 28,
            "TEXCOORD_0": 30
          },
          "indices": 31,
          "material": 0,
          "mode": 4
        }
      ]
    },
    {
      "name": "Object_8",
      "primitives": [
        {
          "attributes": {
            "NORMAL": 33,
            "POSITION": 32,
            "TEXCOORD_0": 34
          },
          "indices": 35,
          "material": 1,
          "mode": 4
        }
      ]
    },
    {
      "name": "Object_9",
      "primitives": [
        {
          "attributes": {
            "NORMAL": 37,
            "POSITION": 36,
            "TEXCOORD_0": 38
          },
          "indices": 39,
          "material": 0,
          "mode": 4
        }
      ]
    },
    {
      "name": "Object_10",
      "primitives": [
        {
          "attributes": {
            "NORMAL": 41,
            "POSITION": 40,
            "TEXCOORD_0": 42
          },
          "indices": 43,
          "material": 0,
          "mode": 4
        }
      ]
    },
    {
      "name": "Object_11",
      "primitives": [
        {
          "attributes": {
            "NORMAL": 45,
            "POSITION": 44,
            "TEXCOORD_0": 46
          },
          "indices": 47,
          "material": 2,
          "mode": 4
        }
      ]
    }
  ],
  "nodes": [
    {
      "children": [
        1
      ],
      "matrix": [
        1.0,
        0.0,
        0.0,
        0.0,
        0.0,
        2.220446049250313e-16,
        -1.0,
        0.0,
        0.0,
        1.0,
        2.220446049250313e-16,
        0.0,
        0.0,
        0.0,
        0.0,
        1.0
      ],
      "name": "Sketchfab_model"
    },
    {
      "children": [
        2
      ],
      "name": "root"
    },
    {
      "children": [
        3,
        13,
        15
      ],
      "matrix": [
        1.0,
        0.0,
        0.0,
        0.0,
        0.0,
        2.220446049250313e-16,
        1.0,
        0.0,
        0.0,
        -1.0,
        2.220446049250313e-16,
        0.0,
        0.0,
        0.0,
        0.0,
        1.0
      ],
      "name": "GLTF_SceneRootNode"
    },
    {
      "children": [
        4,
        5,
        6,
        7,
        8,
        9,
        10,
        11,
        12
      ],
      "matrix": [
        1.0,
        0.0,
        0.0,
        0.0,
        0.0,
        1.0,
        0.0,
        0.0,
        0.0,
        0.0,
        1.0,
        0.0,
        -0.26602745056152344,
        1.0763297080993652,
        0.5587891936302185,
        1.0
      ],
      "name": "Tower - Door (base)_0"
    },
    {
      "mesh": 0,
      "name": "Object_4"
    },
    {
      "mesh": 1,
      "name": "Object_5"
    },
    {
      "mesh": 2,
      "name": "Object_6"
    },
    {
      "mesh": 3,
      "name": "Object_7"
    },
    {
      "mesh": 4,
      "name": "Object_8"
    },
    {
      "mesh": 5,
      "name": "Object_9"
    },
    {
      "mesh": 6,
      "name": "Object_10"
    },
    {
      "mesh": 7,
      "name": "Object_11"
    },
    {
      "mesh": 8,
      "name": "Object_12"
    },
    {
      "children": [
        14
      ],
      "matrix": [
        1.0,
        0.0,
        0.0,
        0.0,
        0.0,
        1.0,
        0.0,
        0.0,
        0.0,
        0.0,
        1.0,
        0.0,
        0.0,
        0.0,
        0.05097367987036705,
        1.0
      ],
      "name": "Tower - Door (Frame)_1"
    },
    {
      "mesh": 9,
      "name": "Object_14"
    },
    {
      "children": [
        16,
        17
      ],
      "name": "Tower - Main_2"
    },
    {
      "mesh": 10,
      "name": "Object_16"
    },
    {
      "mesh": 11,
      "name": "Object_17"
    }
  ],
  "scene": 0,
  "scenes": [
    {
      "name": "Sketchfab_Scene",
      "nodes": [
        0
      ]
    }
  ]
}
