<svg version="1.1" xmlns="http://www.w3.org/2000/svg" width="1168" height="334">
<path d="M0 0 C0.87667328 0.00498505 1.75334656 0.00997009 2.65658569 0.0151062 C64.30671094 0.42458113 122.283792 22.39481847 166.01000977 66.39526367 C176.41280918 77.13706097 189.18785679 91.15673824 188.9609375 106.74609375 C188.36312926 112.49359298 185.74887547 116.67303059 181.5625 120.5625 C174.27812667 126.16202859 165.83997927 129.22168795 157.1328125 131.86328125 C155.66036575 132.32362007 155.66036575 132.32362007 154.15817261 132.79325867 C151.04539216 133.7660893 147.92945052 134.72812125 144.8125 135.6875 C100.37877341 149.36996519 62.07847725 169.83056484 24.48828125 197.13671875 C4.5319942 211.57484945 -17.67898474 226.3388752 -43.3125 223.375 C-46.97838735 221.71007616 -49.28006369 219.86379991 -51.3125 216.375 C-54.96050381 201.49220186 -42.07253307 183.94660103 -35.2265625 171.6484375 C-31.75066225 165.39628766 -28.52195549 159.044207 -25.39892578 152.60986328 C-24.60464618 150.97596767 -23.80545542 149.34445696 -23.00341797 147.71435547 C-8.9722991 122.44953366 -8.9722991 122.44953366 -6.99609375 94.734375 C-11.86027927 80.6060353 -20.49040047 69.33042059 -29.76928711 57.84863281 C-50.1245 32.64050015 -50.1245 32.64050015 -49.7109375 17.625 C-49.35479264 14.71997522 -49.13917467 13.12967402 -47.4375 10.8125 C-33.61349466 0.02977584 -16.77615034 -0.16058398 0 0 Z M25.75 6.625 C21.59165734 12.16945688 22.15988776 18.68939922 22.6875 25.375 C26.54686499 46.55500908 37.5242331 67.35296794 51.6875 83.375 C52.27144531 84.10203125 52.85539062 84.8290625 53.45703125 85.578125 C59.21585729 92.6451621 66.87458459 98.71449723 75.6875 101.375 C80.02425711 101.375 81.89330581 101.12739449 85.0625 98.125 C89.79085956 90.12316075 87.69348982 80.73440013 85.71875 72.140625 C80.97162099 54.80641151 72.14229947 38.17644241 60.6875 24.375 C59.945 23.48039062 59.2025 22.58578125 58.4375 21.6640625 C51.84779997 14.04472184 43.27301752 4.64976247 32.625 3.875 C28.6008806 4.05043213 28.6008806 4.05043213 25.75 6.625 Z " fill="#004895" transform="translate(117.3125,56.625)"/>
<path d="M0 0 C8.58 0 17.16 0 26 0 C30.62462382 6.60660546 34.92624445 13.05465713 38.9375 20 C43.77231366 28.27469719 48.71629003 36.46949365 53.75 44.625 C62.23220615 58.37645542 70.61484301 72.18915319 79 86 C79.33 57.62 79.66 29.24 80 0 C88.25 0 96.5 0 105 0 C105 44.22 105 88.44 105 134 C95.76 134 86.52 134 77 134 C68.62394019 123.04132175 68.62394019 123.04132175 66.640625 118.05078125 C64.32019202 112.58473916 61.53534722 107.80547951 58.25 102.875 C52.40177316 93.7626236 46.80813375 84.49661998 41.22558594 75.22021484 C36.28927623 67.04202665 31.17102233 59.04381251 26 51 C25.67 78.39 25.34 105.78 25 134 C16.75 134 8.5 134 0 134 C0 89.78 0 45.56 0 0 Z " fill="#004895" transform="translate(824,102)"/>
<path d="M0 0 C9.24 0 18.48 0 28 0 C28.33 18.48 28.66 36.96 29 56 C34.445 50.06 34.445 50.06 40 44 C41.815 42.02 43.63 40.04 45.5 38 C46.40492188 37.01257813 4
</svg>