<?xml version="1.0" encoding="utf-8"?>
<!-- Generator: Adobe Illustrator 16.0.0, SVG Export Plug-In . SVG Version: 6.00 Build 0)  -->
<!DOCTYPE svg PUBLIC "-//W3C//DTD SVG 1.1//EN" "http://www.w3.org/Graphics/SVG/1.1/DTD/svg11.dtd">
<svg version="1.1" id="레이어_1" xmlns="http://www.w3.org/2000/svg" xmlns:xlink="http://www.w3.org/1999/xlink" x="0px"
	 y="0px" width="299.306px" height="65.907px" viewBox="0 0 299.306 65.907" enable-background="new 0 0 299.306 65.907"
	 xml:space="preserve">
<g>
	<g>
		<path fill="#FFFFFF" d="M134.672,25.142c1.021-2.412,2.516-4.59,4.507-6.504c1.838-1.843,3.887-3.232,6.142-4.196
			c2.288-0.926,4.753-1.378,7.38-1.378c2.662,0,5.159,0.453,7.477,1.378c2.287,0.963,4.387,2.389,6.298,4.257
			c1.947,1.911,3.425,4.054,4.408,6.443c1.021,2.406,1.536,4.959,1.536,7.688c0,2.743-0.436,5.27-1.333,7.578
			c-0.854,2.292-2.113,4.359-3.785,6.204c-2.013,2.115-4.243,3.714-6.668,4.813c-2.483,1.126-5.154,1.698-7.979,1.698
			c-2.874,0-5.538-0.582-7.995-1.745c-2.421-1.125-4.611-2.764-6.555-4.919c-1.607-1.852-2.837-3.908-3.692-6.195
			c-0.818-2.368-1.22-4.84-1.22-7.435C133.191,30.136,133.673,27.566,134.672,25.142z M141.296,37.972
			c0.594,1.608,1.455,2.986,2.592,4.156c1.184,1.19,2.555,2.139,4.094,2.826c1.53,0.695,3.113,1.035,4.702,1.035
			c3.549,0,6.531-1.26,8.941-3.771c2.41-2.515,3.62-5.646,3.62-9.389c0-1.574-0.297-3.076-0.898-4.525
			c-0.592-1.477-1.454-2.793-2.591-3.973c-1.273-1.413-2.657-2.441-4.133-3.113c-1.471-0.619-3.121-0.941-4.939-0.941
			c-1.636,0-3.171,0.282-4.607,0.854c-1.478,0.597-2.78,1.483-3.91,2.682c-1.216,1.198-2.142,2.61-2.776,4.253
			c-0.623,1.571-0.938,3.189-0.938,4.857C140.453,34.718,140.735,36.391,141.296,37.972z"/>
		<g>
			<g>
				<path fill="#FFFFFF" d="M84.089,52.62V13.407h12.668c4.789,0,7.92,0.203,9.364,0.597c2.245,0.576,4.115,1.856,5.629,3.83
					c1.516,1.977,2.266,4.521,2.266,7.642c0,2.427-0.435,4.444-1.299,6.088c-0.876,1.644-1.977,2.924-3.309,3.861
					c-1.339,0.952-2.704,1.561-4.083,1.865c-1.886,0.375-4.597,0.561-8.166,0.561h-5.125V52.62H84.089z M92.034,20.073v11.12h4.297
					c3.098,0,5.165-0.202,6.218-0.622c1.039-0.406,1.871-1.047,2.45-1.92c0.605-0.876,0.898-1.896,0.898-3.054
					c0-1.431-0.417-2.593-1.252-3.534c-0.833-0.926-1.886-1.505-3.16-1.736c-0.934-0.174-2.827-0.254-5.657-0.254H92.034z"/>
				<path fill="#FFFFFF" d="M119.785,52.62V13.407h7.923V52.62H119.785z"/>
				<path fill="#FFFFFF" d="M177.74,52.75V13.895h7.919v32.189h19.705v6.666H177.74z"/>
				<path fill="#FFFFFF" d="M210.148,52.75V13.516h7.942V52.75H210.148z"/>
				<path fill="#FFFFFF" d="M225.076,52.75V13.516h7.646l16.171,26.404V13.516h7.298V52.75h-7.892l-15.925-25.828V52.75H225.076z"/>
				<path fill="#FFFFFF" d="M264.059,52.75V13.516h7.939v17.358l15.964-17.358h10.612l-14.732,15.19l15.464,24.044h-10.201
					l-10.75-18.401l-6.356,6.544V52.75H264.059z"/>
			</g>
			<g>
				<path fill="#FFFFFF" d="M84.089,52.62V13.407h12.668c4.789,0,7.92,0.203,9.364,0.597c2.245,0.576,4.115,1.856,5.629,3.83
					c1.516,1.977,2.266,4.521,2.266,7.642c0,2.427-0.435,4.444-1.299,6.088c-0.876,1.644-1.977,2.924-3.309,3.861
					c-1.339,0.952-2.704,1.561-4.083,1.865c-1.886,0.375-4.597,0.561-8.166,0.561h-5.125V52.62H84.089z M92.034,20.073v11.12h4.297
					c3.098,0,5.165-0.202,6.218-0.622c1.039-0.406,1.871-1.047,2.45-1.92c0.605-0.876,0.898-1.896,0.898-3.054
					c0-1.431-0.417-2.593-1.252-3.534c-0.833-0.926-1.886-1.505-3.16-1.736c-0.934-0.174-2.827-0.254-5.657-0.254H92.034z"/>
				<path fill="#FFFFFF" d="M119.785,52.62V13.407h7.923V52.62H119.785z"/>
				<path fill="#FFFFFF" d="M177.74,52.75V13.895h7.919v32.189h19.705v6.666H177.74z"/>
				<path fill="#FFFFFF" d="M210.148,52.75V13.516h7.942V52.75H210.148z"/>
				<path fill="#FFFFFF" d="M225.076,52.75V13.516h7.646l16.171,26.404V13.516h7.298V52.75h-7.892l-15.925-25.828V52.75H225.076z"/>
				<path fill="#FFFFFF" d="M264.059,52.75V13.516h7.939v17.358l15.964-17.358h10.612l-14.732,15.19l15.464,24.044h-10.201
					l-10.75-18.401l-6.356,6.544V52.75H264.059z"/>
			</g>
		</g>
	</g>
	<path fill="#FFFFFF" d="M16.454,0.036c12.646,0.409,17.179,2.309,17.179,2.309c26.002,6.53,36.101,24.41,36.101,24.41
		c1.911,2.795,1.35,4.858,1.35,4.858c-0.554,4.444-7.623,6.441-7.623,6.441c-4.611,1.199-10.5,3.338-10.5,3.338
		c-9.15,2.548-18.612,8.506-18.612,8.506c-5.805,3.496-14.314,9.541-14.314,9.541c-6.758,4.62-11.051,5.744-11.051,5.744
		c-5.079,1.583-7.391,0.076-7.391,0.076c-1.437-0.874-1.52-2.718-1.52-2.718c-0.717-1.745,4.137-10.085,4.137-10.085
		c3.03-5.016,8.093-16.472,8.093-16.472c2.245-5.646,1.379-7.247,1.379-7.247c-0.38-4.198-6.443-11.274-6.443-11.274
		c-3.03-3.667-5.252-6.932-5.252-6.932C0.231,8.085,0.633,5.204,0.633,5.204C1.744-0.768,16.454,0.036,16.454,0.036z M23.437,1.252
		c-2.99,1.715-1.759,9.46,2.744,17.294c4.502,7.833,10.583,12.792,13.566,11.083c2.986-1.729,1.759-9.477-2.744-17.302
		C32.489,4.495,26.419-0.478,23.437,1.252z"/>
</g>
</svg>
